<?xml version="1.0" encoding="utf-8"?>
<!-- Generator: Adobe Illustrator 15.0.0, SVG Export Plug-In . SVG Version: 6.00 Build 0)  -->
<!DOCTYPE svg PUBLIC "-//W3C//DTD SVG 1.1//EN" "http://www.w3.org/Graphics/SVG/1.1/DTD/svg11.dtd">
<svg version="1.1" id="Layer_1" xmlns="http://www.w3.org/2000/svg" xmlns:xlink="http://www.w3.org/1999/xlink" x="0px" y="0px"
	 width="600px" height="167.881px" viewBox="-150.055 -41.986 600 167.881" enable-background="new -150.055 -41.986 600 167.881"
	 xml:space="preserve">
<g>
	<path d="M17.147,45.24c0,45.973-35.786,80.625-83.578,80.625c-47.79,0-83.568-34.652-83.568-80.625
		c0-45.747,35.778-80.399,83.568-80.399C-18.637-35.159,17.147-0.737,17.147,45.24z M-109.013,45.24
		c0,23.557,19.033,42.582,42.582,42.582c23.56,0,42.582-19.025,42.582-42.582c0-23.331-19.022-42.354-42.582-42.354
		C-89.98,2.887-109.013,21.909-109.013,45.24z"/>
	<path d="M38.76,120.432V-30.631h36.238v151.062H38.76z"/>
	<path d="M138.226-21.577c0,11.324-9.063,20.386-20.388,20.386c-11.322,0-20.386-9.063-20.386-20.386s9.063-20.378,20.386-20.378
		C129.163-41.955,138.226-32.899,138.226-21.577z M135.958,120.432H99.72V17.833h36.238V120.432z"/>
	<path d="M213.451,70.383l24.916-52.548h40.543l-53.455,102.601h-24.232L148.22,17.835h40.768L213.451,70.383z"/>
	<path d="M329.937-21.577c0,11.324-9.062,20.386-20.387,20.386c-11.322,0-20.387-9.063-20.387-20.386s9.062-20.378,20.385-20.378
		C320.875-41.955,329.937-32.899,329.937-21.577z M327.667,120.432h-36.238V17.833h36.238V120.432z"/>
	<path d="M449.781,120.432h-32.393l-0.9-12.676c-16.305,19.021-60.703,21.281-66.816-9.064
		c-7.469-37.824,43.266-48.697,68.854-38.959c-3.393-26.722-31.48-19.252-49.83-12.457l-6.785-23.328
		c17.885-7.7,38.947-12.681,57.064-7.248C441.167,23.273,450,47.506,450,69.701L449.781,120.432z M389.761,77.85
		c-4.986,2.039-9.062,8.16-5.209,13.363c7.701,9.746,33.066,2.498,33.066-10.41V77.85C409.466,75.592,397.683,74.459,389.761,77.85z
		"/>
</g>
</svg>
